OpenSim_Sub08_EMGBaseline_GRF.mot
version=1
nRows=58
nColumns=19
inDegrees=no
endheader
time	lFx	lFy	lFz	lCOPx	lCOPy	lCOPz	rFx	rFy	rFz	rCOPx	rCOPy	rCOPz	lMx	lMy	lMz	rMx	rMy	rMz
49.90000000	-44.19947588	586.38957635	56.88351847	0.85039080	0	-0.61934346	16.94328153	68.98160683	-10.51745371	0.56874702	0	-0.41640603	0	1.32300622	0	0	0.34783481	0
49.91000000	-42.60103604	580.66390912	56.19288789	0.84381679	0	-0.61847269	8.63563092	45.65563884	-9.73185857	0.49758875	0	-0.35672092	0	1.33543384	0	0	0.03426990	0
49.92000000	-40.82698883	575.02990372	54.81241556	0.83716454	0	-0.61758100	3.82992924	29.02777964	-8.18855954	0.34863818	0	-0.23989653	0	1.58858151	0	0	-0.20106705	0.00000000
49.93000000	-38.57217329	569.00282534	52.86315085	0.83025875	0	-0.61671276	1.66163666	17.29596798	-6.12737939	0.16465278	0	-0.10702069	0	2.01039762	0	0	-0.20921014	0.00000000
49.94000000	-35.77392824	561.80753122	50.62430374	0.82335565	0	-0.61605784	0.76435602	9.05262310	-3.84321564	0.04091695	0	-0.02308317	0	2.45224605	0	0	-0.11584072	-0.00000000
49.95000000	-32.59358820	552.44515808	48.51677062	0.81656652	0	-0.61575485	0.29282783	3.64690977	-1.71709087	-0.01041526	0	0.00960273	0	2.75067198	0	0	-0.03827407	-0.00000000
49.96000000	-29.32007661	540.54821977	46.96278771	0.80982619	0	-0.61578049	0.06490050	0.73845434	-0.13156989	-0.01919253	0	0.01383393	0	2.76204673	0	0	-0.00032554	-0.00000000
49.97000000	-26.30376281	526.87747594	46.07239769	0.80307418	0	-0.61600216	0.02633635	-0.25064375	0.54427059	-0.01273565	0	0.00862721	0	2.48728284	0	0	0.00983108	0.00000000
49.98000000	-23.78954968	512.86796383	45.60289110	0.79639989	0	-0.61629616	0.04838626	-0.29124085	0.53919686	-0.00521221	0	0.00331116	0	2.05892133	0	0	0.00801646	-0.00000000
49.99000000	-21.84976564	500.07725104	45.28237377	0.79007925	0	-0.61658689	0.05499760	-0.08096255	0.50517162	-0.00084596	0	0.00039589	0	1.58053378	0	0	0.00387411	-0.00000000
50.00000000	-20.22014615	489.29453882	44.80042017	0.78403919	0	-0.61682188	0.07152840	0.07026365	0.42213974	0.00069215	0	-0.00055386	0	1.17803068	0	0	0.00101109	0.00000000
50.01000000	-18.56490819	480.58123564	43.93937660	0.77794179	0	-0.61696578	0.08546639	0.05591763	0.32404965	0.00078144	0	-0.00055120	0	0.95773045	0	0	-0.00020606	0.00000000
50.02000000	-16.65290974	473.74767105	42.69840427	0.77163184	0	-0.61700503	0.07873477	-0.05115554	0.35200777	0.00044785	0	-0.00029858	0	0.93488532	0	0	-0.00043287	-0.00000000
50.03000000	-14.58294325	468.63439160	41.20862298	0.76548282	0	-0.61698665	0.06044116	-0.07905637	0.34429103	0.00015519	0	-0.00009550	0	1.09017051	0	0	-0.00029485	0.00000000
50.04000000	-12.57952275	465.00879288	39.62376479	0.75959259	0	-0.61692126	0.06048642	-0.02231034	0.29291786	0.00000708	0	0.00000171	0	1.39357602	0	0	-0.00012369	0.00000000
50.05000000	-10.69379721	462.91591213	38.24129837	0.75387620	0	-0.61677638	0.08494377	0.06067070	0.26510805	-0.00003521	0	0.00002656	0	1.70634462	0	0	-0.00002202	-0.00000000
50.06000000	-8.85153020	462.69821142	37.38134788	0.74799404	0	-0.61650529	0.09497202	0.12895187	0.26157454	-0.00003027	0	0.00002098	0	1.88794952	0	0	0.00001485	-0.00000000
50.07000000	-6.99048655	464.59176350	37.11339243	0.74201739	0	-0.61619371	0.08904291	0.17926975	0.30951104	-0.00001514	0	0.00000992	0	1.90322675	0	0	0.00001779	0.00000000
50.08000000	-5.15909571	468.41169773	37.35256444	0.73610822	0	-0.61585707	0.07801292	0.14766962	0.34509692	-0.00000423	0	0.00000247	0	1.76391621	0	0	0.00001043	-0.00000000
50.09000000	-3.33850660	473.68931164	37.87826771	0.73012768	0	-0.61547171	0.05862069	0.07491284	0.31380640	0.00000058	0	-0.00000062	0	1.56053869	0	0	0.00000373	-0.00000000
50.10000000	-1.49993846	480.03723402	38.47798051	0.72392124	0	-0.61508029	0.04000260	-0.02328876	0.28411492	0.00000158	0	-0.00000115	0	1.38839869	0	0	0.00000025	-0.00000000
50.11000000	0.33064558	487.15754815	38.94981242	0.71756389	0	-0.61471215	0.02772416	-0.12429301	0.28716025	0.00000112	0	-0.00000077	0	1.27482988	0	0	-0.00000078	-0.00000000
50.12000000	2.07394906	494.88299247	39.21052362	0.71136615	0	-0.61428564	0.02366645	-0.14107777	0.28514594	0.00000049	0	-0.00000031	0	1.24597793	0	0	-0.00000069	-0.00000000
50.13000000	3.85850936	503.22814005	39.25308612	0.70541322	0	-0.61373578	0.02696652	-0.03458505	0.28714211	0.00000010	0	-0.00000005	0	1.32599451	0	0	-0.00000036	-0.00000000
50.14000000	5.89952172	512.39766420	39.11343184	0.69953126	0	-0.61315568	0.01747029	0.17852479	0.30314043	-0.00000005	0	0.00000004	0	1.53933533	0	0	-0.00000010	-0.00000000
50.15000000	8.31426181	522.28426628	38.88988379	0.69370489	0	-0.61263332	-0.00075767	0.36380268	0.29300064	-0.00000007	0	0.00000005	0	1.86238487	0	0	0.00000001	0.00000000
50.16000000	10.88880401	531.89070495	38.65947052	0.68834468	0	-0.61222113	-0.00102655	0.39711837	0.27198058	-0.00000004	0	0.00000003	0	2.23643575	0	0	0.00000004	-0.00000000
50.17000000	13.30679008	540.01557168	38.51781140	0.68347708	0	-0.61194551	0.03852518	0.32384191	0.27465613	-0.00000002	0	0.00000001	0	2.57876391	0	0	0.00000003	-0.00000000
50.18000000	15.54256170	546.15203108	38.54647480	0.67884011	0	-0.61183275	0.05570501	0.21530871	0.30316706	-0.00000000	0	0.00000000	0	2.80937803	0	0	0.00000001	0.00000000
50.19000000	17.60749349	550.33175851	38.76888706	0.67424372	0	-0.61185752	0.03397803	0.09187083	0.31184260	0.00000000	0	-0.00000000	0	2.92997576	0	0	0.00000000	0.00000000
50.20000000	19.33579040	552.55566529	39.09972972	0.66992237	0	-0.61198329	0.01879474	-0.02062368	0.31526499	0.00000001	0	-0.00000000	0	2.94986570	0	0	-0.00000000	-0.00000000
50.21000000	20.52821900	552.66441060	39.37197080	0.66605797	0	-0.61218168	0.02462045	0.00226294	0.33315247	0.00000001	0	-0.00000000	0	2.89231290	0	0	-0.00000000	0.00000000
50.22000000	21.33625429	550.68230381	39.48504889	0.66257961	0	-0.61244961	0.02763650	0.13745147	0.33220147	-0.00000000	0	0.00000000	0	2.78452817	0	0	-0.00000001	-0.00000000
50.23000000	22.03667872	547.10664523	39.34643300	0.65947581	0	-0.61282835	0.02198978	0.30687831	0.29943590	-0.00000002	0	0.00000001	0	2.69873534	0	0	-0.00000001	0.00000000
50.24000000	22.75184764	542.36244715	38.91208731	0.65669698	0	-0.61331804	0.01397580	0.43375462	0.28662319	-0.00000006	0	0.00000003	0	2.69895075	0	0	-0.00000001	-0.00000000
50.25000000	23.27230549	536.72635881	38.33836724	0.65435350	0	-0.61389218	0.00867582	0.44033055	0.27055956	-0.00000010	0	0.00000005	0	2.73508715	0	0	0.00000000	-0.00000000
50.26000000	23.46722050	530.20159676	37.76112317	0.65202155	0	-0.61447737	0.01737110	0.33332704	0.25194642	-0.00000009	0	0.00000004	0	2.76667120	0	0	0.00000004	-0.00000000
50.27000000	23.43506375	522.98505608	37.35948254	0.64955689	0	-0.61507475	0.02786747	0.28416762	0.27157463	0.00000011	0	-0.00000005	0	2.72100509	0	0	0.00000012	-0.00000000
50.28000000	23.36805161	515.62418305	37.17064666	0.64701953	0	-0.61573096	0.02482909	0.29499964	0.28833923	0.00000068	0	-0.00000032	0	2.61111697	0	0	0.00000021	0.00000000
50.29000000	23.33921679	508.76138682	37.09760796	0.64457559	0	-0.61645546	-0.00465401	0.31449465	0.29697289	0.00000168	0	-0.00000079	0	2.49355784	0	0	0.00000017	-0.00000000
50.30000000	23.49451507	502.86648641	36.94751653	0.64196610	0	-0.61717722	-0.03969401	0.36281194	0.32228168	0.00000255	0	-0.00000120	0	2.41502480	0	0	-0.00000027	-0.00000000
50.31000000	24.21581666	498.19349947	36.52147589	0.63861784	0	-0.61775022	-0.06365429	0.44262866	0.31820467	0.00000143	0	-0.00000068	0	2.41988449	0	0	-0.00000146	-0.00000000
50.32000000	25.69469806	494.65205047	35.86338692	0.63440488	0	-0.61807525	-0.05865067	0.48794939	0.33492511	-0.00000530	0	0.00000248	0	2.50939877	0	0	-0.00000344	0.00000000
50.33000000	27.62958246	491.55673026	35.20768451	0.62971547	0	-0.61825031	-0.04470247	0.43758885	0.37407791	-0.00002164	0	0.00001014	0	2.62164063	0	0	-0.00000498	-0.00000000
50.34000000	29.66564010	488.22112978	34.78374326	0.62489088	0	-0.61841864	-0.03532817	0.28248421	0.35677698	-0.00004610	0	0.00002163	0	2.67668062	0	0	-0.00000218	-0.00000000
50.35000000	31.81447613	484.24322306	34.69285145	0.61963057	0	-0.61862765	-0.04194043	0.18260315	0.35435100	-0.00005894	0	0.00002770	0	2.63630467	0	0	0.00001222	0.00000000
50.36000000	34.20049758	479.61109268	34.92548860	0.61368689	0	-0.61882955	-0.02134457	0.16906070	0.36003772	-0.00000548	0	0.00000270	0	2.51047388	0	0	0.00004563	-0.00000000
50.37000000	36.86096932	474.45662727	35.34600439	0.60708181	0	-0.61897254	0.00416308	0.17723180	0.32119641	0.00020671	0	-0.00009676	0	2.34609640	0	0	0.00009326	0.00000000
50.38000000	39.69417140	468.87207525	35.82068236	0.60049817	0	-0.61909636	0.01821999	0.21721606	0.31775328	0.00065309	0	-0.00030622	0	2.14607630	0	0	0.00011222	-0.00000000
50.39000000	42.62561071	462.48147655	36.16804174	0.59415799	0	-0.61921296	0.05577691	0.30212557	0.32324949	0.00121388	0	-0.00056977	0	1.94820158	0	0	-0.00001034	-0.00000000
50.40000000	45.69312026	454.62517037	36.18896139	0.58774881	0	-0.61927666	0.08295689	0.34553120	0.30203802	0.00123665	0	-0.00058169	0	1.75794916	0	0	-0.00045717	0.00000000
50.41000000	48.80819719	444.78730067	35.72516836	0.58102214	0	-0.61923674	0.01842524	0.31101590	0.26899976	-0.00082013	0	0.00038119	0	1.59458708	0	0	-0.00135922	-0.00000000
50.42000000	51.64735272	432.63845062	34.74303878	0.57420712	0	-0.61901819	-0.18323056	0.07234641	0.21960414	-0.00719790	0	0.00337168	0	1.48757307	0	0	-0.00242412	-0.00000000
50.43000000	53.91533179	417.97632416	33.33732750	0.56778962	0	-0.61860678	-0.48760674	-0.57241852	0.17276891	-0.01890757	0	0.00886811	0	1.41258206	0	0	-0.00226104	0.00000000
50.44000000	55.55471760	400.30970894	31.52345751	0.56146014	0	-0.61803136	-0.63308153	-1.54509222	0.15296738	-0.03054208	0	0.01434130	0	1.38726855	0	0	0.00227576	0.00000000
50.45000000	56.46092023	379.05776722	29.25995255	0.55493792	0	-0.61740434	0.21945659	-1.94378141	0.19587897	-0.02172877	0	0.01024126	0	1.36473413	0	0	0.01553482	-0.00000000
50.46000000	56.46720283	353.91380236	26.52118177	0.54851493	0	-0.61677533	3.42602949	0.90549956	0.37655335	0.04934660	0	-0.02305388	0	1.30186444	0	0	0.03888947	0
50.47000000	55.37142599	324.97832370	23.40936923	0.54287868	0	-0.61603124	9.91309787	11.08654161	0.99671238	0.23333741	0	-0.10935232	0	1.16351214	0	0	0.06005138	0
